/home/minht/3dpredictsim_tutorial/predsim_tutorial/Results/Case_11/GRF.mot
version=1
nRows=25
nColumns=19
inDegrees=yes
endheader 
time	r_ground_force_vx	r_ground_force_vy	r_ground_force_vz	r_ground_force_px	r_ground_force_py	r_ground_force_pz	l_ground_force_vx	l_ground_force_vy	l_ground_force_vz	l_ground_force_px	l_ground_force_py	l_ground_force_pz	r_ground_torque_x	r_ground_torque_y	r_ground_torque_z	l_ground_torque_x	l_ground_torque_y	l_ground_torque_z	
          1.06659409	         50.22440762	        342.65309910	        -21.05842504	          1.95929949	          0.00000000	          0.21193677	        -99.48066742	        892.37623947	          1.40375502	          0.15425758	          0.00000000	         -0.03877102	          0.00000000	        -60.03566263	          0.00000000	          0.00000000	         -1.24959736	          0.00000000	
          1.08275461	         35.74910609	        276.53967492	        -23.87394888	          2.38573202	          0.00000000	          0.25942306	        -88.06306830	        876.84372902	         -2.45737864	          0.13058244	          0.00000000	         -0.03247665	          0.00000000	        -72.32130452	          0.00000000	          0.00000000	          2.37868840	          0.00000000	
          1.09891512	         22.30654525	        218.08136803	        -23.98474114	          2.97394428	          0.00000000	          0.32467593	        -74.86671796	        861.52590560	         -6.81358982	          0.10805154	          0.00000000	         -0.02695723	          0.00000000	        -81.74455241	          0.00000000	          0.00000000	          4.71362396	          0.00000000	
          1.11507564	         12.27322044	        171.94896179	        -24.74178410	          3.75091736	          0.00000000	          0.40861993	        -62.58143254	        854.32134888	        -10.85468380	          0.08818594	          0.00000000	         -0.02190503	          0.00000000	        -98.01175331	          0.00000000	          0.00000000	          7.06449715	          0.00000000	
          1.13123616	          6.12212145	        142.94240767	        -28.30668410	          4.50888761	          0.00000000	          0.48876348	        -53.88514940	        850.03200476	        -13.68961756	          0.07416375	          0.00000000	         -0.01783786	          0.00000000	       -128.58465234	          0.00000000	          0.00000000	          9.82044272	          0.00000000	
          1.14739667	         -0.28486735	        111.90984346	        -28.54909026	          5.77598632	          0.00000000	          0.62314570	        -47.78961803	        848.43236566	        -15.37697920	          0.05852885	          0.00000000	         -0.01362166	          0.00000000	       -161.01514855	          0.00000000	          0.00000000	         11.14749042	          0.00000000	
          1.16355719	         -8.37161750	         78.36700112	        -24.14770902	          8.32264906	          0.00000000	          0.89541214	        -42.71064380	        852.21107782	        -16.82526537	          0.04103582	          0.00000000	         -0.00932370	          0.00000000	       -187.97247623	          0.00000000	          0.00000000	         10.54490864	          0.00000000	
          1.17971771	        -17.16602746	         39.96679296	        -13.36466420	         16.54704206	          0.00000000	          1.77983123	        -37.34556260	        860.68790762	        -18.43359961	          0.02083725	          0.00000000	         -0.00462495	          0.00000000	       -182.87926824	          0.00000000	          0.00000000	          7.15450471	          0.00000000	
          1.19587822	          0.00000000	          0.00000000	          0.00000000	          0.00000000	          0.00000000	          0.00000000	        -30.91373646	        866.56488587	        -19.49763818	          0.00488834	          0.00000000	         -0.00104562	          0.00000000	          0.00000000	          0.00000000	          0.00000000	          1.54746208	          0.00000000	
          1.21203874	          0.00000000	          0.00000000	          0.00000000	          0.00000000	          0.00000000	          0.00000000	        -24.23957208	        863.36152792	        -20.77868124	          0.00006676	          0.00000000	         -0.00001368	          0.00000000	          0.00000000	          0.00000000	          0.00000000	          0.01071488	          0.00000000	
          1.22819926	          0.00000000	          0.00000000	          0.00000000	          0.00000000	          0.00000000	          0.00000000	        -18.49324881	        855.16635663	        -22.06160440	          0.00027892	          0.00000000	         -0.00005563	          0.00000000	          0.00000000	          0.00000000	          0.00000000	          0.03708958	          0.00000000	
          1.24435977	          0.00000000	          0.00000000	          0.00000000	          0.00000000	          0.00000000	          0.00000000	        -14.58610308	        849.58953099	        -23.77473695	          0.00017136	          0.00000000	         -0.00003312	          0.00000000	          0.00000000	          0.00000000	          0.00000000	          0.02045108	          0.00000000	
          1.26052029	          0.00000000	          0.00000000	          0.00000000	          0.00000000	          0.00000000	          0.00000000	        -11.26995153	        847.91556067	        -25.44054163	          0.00010603	          0.00000000	         -0.00001984	          0.00000000	          0.00000000	          0.00000000	          0.00000000	          0.01255039	          0.00000000	
          1.27668081	          0.00000000	          0.00000000	          0.00000000	          0.00000000	          0.00000000	          0.00000000	         -7.82252730	        851.50185349	        -27.52605110	          0.00009161	          0.00000000	         -0.00001658	          0.00000000	          0.00000000	          0.00000000	          0.00000000	          0.01122206	          0.00000000	
          1.29284132	          0.00000000	          0.00000000	          0.00000000	          0.00000000	          0.00000000	          0.00000000	         -4.81209008	        858.53036643	        -29.55157495	          0.00010732	          0.00000000	         -0.00001875	          0.00000000	          0.00000000	          0.00000000	          0.00000000	          0.01411424	          0.00000000	
          1.30900184	          0.00000000	          0.00000000	          0.00000000	          0.00000000	          0.00000000	          0.00000000	         -2.12985041	        866.75017486	        -31.24258736	          0.00014726	          0.00000000	         -0.00002479	          0.00000000	          0.00000000	          0.00000000	          0.00000000	          0.02113128	          0.00000000	
          1.32516236	          0.00000000	          0.00000000	          0.00000000	          0.00000000	          0.00000000	          0.00000000	          0.91375805	        876.43552355	        -32.83847037	          0.00020535	          0.00000000	         -0.00003326	          0.00000000	          0.00000000	          0.00000000	          0.00000000	          0.03223605	          0.00000000	
          1.34132287	          0.00000000	          0.00000000	          0.00000000	          0.00000000	          0.00000000	          0.00000000	          3.49055810	        885.82450997	        -34.10534379	          0.00026231	          0.00000000	         -0.00004078	          0.00000000	          0.00000000	          0.00000000	          0.00000000	          0.04496660	          0.00000000	
          1.35748339	          0.00000000	          0.00000000	          0.00000000	          0.00000000	          0.00000000	          0.00000000	          6.15376388	        893.54428708	        -35.04286766	          0.00028373	          0.00000000	         -0.00004225	          0.00000000	          0.00000000	          0.00000000	          0.00000000	          0.05280127	          0.00000000	
          1.37364391	          0.00000000	          0.00000000	          0.00000000	          0.00000000	          0.00000000	          0.00000000	          9.23964417	        898.84124687	        -35.56481687	          0.00024191	          0.00000000	         -0.00003443	          0.00000000	          0.00000000	          0.00000000	          0.00000000	          0.04851864	          0.00000000	
          1.38980442	          0.00000000	          0.00000000	          0.00000000	          0.00000000	          0.00000000	          0.00000000	         13.62209733	        900.76349545	        -35.89229175	          0.00015015	          0.00000000	         -0.00002036	          0.00000000	          0.00000000	          0.00000000	          0.00000000	          0.03214348	          0.00000000	
          1.40596494	          0.00000000	          0.00000000	          0.00000000	          0.00000000	          0.00000000	          0.00000000	         18.04554174	        899.31998210	        -35.97375383	          0.00006240	          0.00000000	         -0.00000803	          0.00000000	          0.00000000	          0.00000000	          0.00000000	          0.01406033	          0.00000000	
          1.42212546	          0.00000000	          0.00000000	          0.00000000	          0.00000000	          0.00000000	          0.00000000	         22.21836320	        894.86659731	        -35.75622825	          0.00001732	          0.00000000	         -0.00000209	          0.00000000	          0.00000000	          0.00000000	          0.00000000	          0.00394933	          0.00000000	
          1.43828597	          0.00000000	          0.00000000	          0.00000000	          0.00000000	          0.00000000	          0.00000000	         26.25267439	        887.32327688	        -34.91411082	          0.00000551	          0.00000000	         -0.00000063	          0.00000000	          0.00000000	          0.00000000	          0.00000000	          0.00115117	          0.00000000	
          1.45444649	          0.00000000	          0.00000000	          0.00000000	          0.00000000	          0.00000000	          0.00000000	         29.76584326	        877.24309747	        -33.54450264	          0.00001952	          0.00000000	         -0.00000256	          0.00000000	          0.00000000	          0.00000000	          0.00000000	          0.00388808	          0.00000000	
